<?xml version="1.0" encoding="utf-8"?>
<!-- Generator: Adobe Illustrator 19.0.0, SVG Export Plug-In . SVG Version: 6.00 Build 0)  -->
<svg version="1.1" id="Capa_1" xmlns="http://www.w3.org/2000/svg" xmlns:xlink="http://www.w3.org/1999/xlink" x="0px" y="0px"
	 viewBox="-49 205 512 384" style="enable-background:new -49 205 512 384;" xml:space="preserve">
<style type="text/css">
	.st0{fill:#A2D0CA;}
</style>
<g>
	<path class="st0" d="M463,525c0,11.2-3.2,21.6-8.2,30.8L293.1,374.9L453,235c6.2,9.9,10,21.5,10,34L463,525L463,525z M207,407.7
		l222.5-194.7c-9.1-5-19.4-8.1-30.5-8.1H15c-11.1,0-21.4,3.1-30.5,8.1L207,407.7z M269,396l-51.5,45.1c-3,2.6-6.8,3.9-10.5,3.9
		c-3.8,0-7.5-1.3-10.5-3.9L145,396L-18.8,579.2c9.8,6.2,21.3,9.8,33.7,9.8h384c12.4,0,23.9-3.7,33.7-9.8L269,396z M-39,235
		c-6.2,9.9-10,21.5-10,34v256c0,11.2,3.1,21.6,8.2,30.8l161.6-180.9L-39,235z"/>
</g>
</svg>
