<?xml version="1.0" encoding="utf-8"?>
<!-- Generator: Adobe Illustrator 19.0.0, SVG Export Plug-In . SVG Version: 6.00 Build 0)  -->
<svg version="1.1" id="Layer_1" xmlns="http://www.w3.org/2000/svg" xmlns:xlink="http://www.w3.org/1999/xlink" x="0px" y="0px"
	 viewBox="0 0 32 32" style="enable-background:new 0 0 32 32;" xml:space="preserve">
<style type="text/css">
	.st0{fill:#98CAC5;}
	.st1{fill:#FFFFFF;}
</style>
<g>
	<circle class="st0" cx="16" cy="16" r="16"/>
	<path class="st1" d="M20,9.5h-8c-1.4,0-2.5,1.1-2.5,2.5v2.7V20c0,1.4,1.1,2.5,2.5,2.5h8c1.4,0,2.5-1.1,2.5-2.5v-5.3V12
		C22.5,10.6,21.4,9.5,20,9.5z M20.7,11l0.3,0v0.3v1.9l-2.2,0l0-2.2L20.7,11z M14.1,14.7c0.4-0.6,1.1-1,1.9-1c0.8,0,1.4,0.4,1.9,1
		c0.3,0.4,0.4,0.8,0.4,1.3c0,1.3-1,2.3-2.3,2.3s-2.3-1-2.3-2.3C13.7,15.5,13.9,15,14.1,14.7z M21.2,20c0,0.7-0.6,1.2-1.2,1.2h-8
		c-0.7,0-1.2-0.6-1.2-1.2v-5.3h1.9c-0.2,0.4-0.3,0.9-0.3,1.3c0,2,1.6,3.6,3.6,3.6c2,0,3.6-1.6,3.6-3.6c0-0.5-0.1-0.9-0.3-1.3h1.9V20
		z"/>
</g>
</svg>
