<?xml version="1.0" encoding="utf-8"?>
<!-- Generator: Adobe Illustrator 19.0.0, SVG Export Plug-In . SVG Version: 6.00 Build 0)  -->
<svg version="1.1" id="Layer_1" xmlns="http://www.w3.org/2000/svg" xmlns:xlink="http://www.w3.org/1999/xlink" x="0px" y="0px"
	 viewBox="0 0 54 70.9" style="enable-background:new 0 0 54 70.9;" xml:space="preserve">
<style type="text/css">
	.st0{fill:#0F9A97;}
	.st1{fill:#FFFFFF;}
</style>
<rect class="st0" width="54" height="70.9"/>
<path class="st1" d="M9,45h2c0.2,0,0.3,0,0.4-0.1c0.1-0.1,0.3-0.2,0.4-0.3c0.1-0.1,0.2-0.2,0.2-0.4c0.1-0.1,0.1-0.3,0.1-0.4
	c0-0.2,0-0.3-0.1-0.4c-0.1-0.1-0.1-0.2-0.2-0.3c-0.1-0.1-0.2-0.2-0.4-0.2c-0.1-0.1-0.3-0.1-0.4-0.1H9V45z M9,40.1v2h1.8
	c0.1,0,0.3,0,0.4-0.1c0.1-0.1,0.2-0.1,0.3-0.2c0.1-0.1,0.2-0.2,0.2-0.3c0.1-0.1,0.1-0.3,0.1-0.4c0-0.1,0-0.3-0.1-0.4
	c-0.1-0.1-0.1-0.2-0.2-0.3c-0.1-0.1-0.2-0.2-0.3-0.2c-0.1-0.1-0.3-0.1-0.4-0.1H9z M8.3,45.6v-6.2h2.4c0.2,0,0.4,0,0.6,0.1
	c0.2,0.1,0.4,0.2,0.5,0.4c0.1,0.2,0.3,0.3,0.4,0.5c0.1,0.2,0.1,0.4,0.1,0.6c0,0.2,0,0.5-0.2,0.7c-0.1,0.2-0.2,0.4-0.4,0.5
	c0.3,0.2,0.5,0.4,0.7,0.6c0.2,0.3,0.3,0.6,0.3,0.9c0,0.2,0,0.5-0.1,0.7c-0.1,0.2-0.2,0.4-0.4,0.6c-0.2,0.2-0.3,0.3-0.6,0.4
	c-0.2,0.1-0.4,0.1-0.7,0.1H8.3z"/>
<polygon class="st1" points="14.9,45.6 14.9,39.4 18.6,39.4 18.6,40.1 15.5,40.1 15.5,42.1 18.3,42.1 18.3,42.7 15.5,42.7 15.5,45 
	18.6,45 18.6,45.6 "/>
<path class="st1" d="M22.3,43.1h1.8l-0.9-2.6L22.3,43.1z M24.4,43.7h-2.3l-0.7,1.9h-0.7l2.2-6.2h0.7l2.2,6.2h-0.7L24.4,43.7z"/>
<path class="st1" d="M30.4,45.7c-0.1,0-0.3,0-0.4,0c-0.3,0-0.6-0.1-0.8-0.2c-0.2-0.1-0.5-0.3-0.6-0.4c-0.2-0.2-0.3-0.4-0.4-0.6
	c-0.1-0.2-0.2-0.5-0.2-0.8v-0.1v-4h0.7v4.1c0,0.3,0,0.5,0.1,0.7c0.1,0.2,0.2,0.3,0.3,0.5c0.1,0.1,0.3,0.2,0.5,0.3
	C29.8,45,30,45,30.2,45c0,0,0.1,0,0.1,0h0.1h0.1h0h0.1h0.1c0,0,0,0,0.1,0c0.2,0,0.4-0.1,0.6-0.1c0.2-0.1,0.4-0.2,0.5-0.3
	c0.1-0.1,0.3-0.3,0.3-0.5c0.1-0.2,0.1-0.4,0.1-0.7v-4.1h0.7v4v0.1c0,0.3-0.1,0.6-0.2,0.8c-0.1,0.2-0.3,0.4-0.4,0.6
	c-0.2,0.2-0.4,0.3-0.6,0.4c-0.2,0.1-0.5,0.2-0.8,0.2l-0.3,0H30.4L30.4,45.7z"/>
<polygon class="st1" points="37.2,40.1 37.2,45.6 36.6,45.6 36.6,40.1 35,40.1 35,39.4 38.7,39.4 38.7,40.1 "/>
<polygon class="st1" points="43.4,41.9 45.1,39.4 45.9,39.4 43.7,42.7 43.7,45.6 43,45.6 43,42.7 40.8,39.4 41.6,39.4 "/>
<path class="st1" d="M11.6,51.7c-0.2-0.2-0.4-0.4-0.6-0.5c-0.2-0.1-0.5-0.2-0.8-0.2c-0.4,0-0.7,0.1-0.9,0.3
	c-0.2,0.2-0.3,0.4-0.3,0.6c0,0.1,0,0.3,0.1,0.4c0.1,0.1,0.2,0.2,0.4,0.3c0.1,0.1,0.3,0.2,0.5,0.2c0.2,0.1,0.4,0.1,0.5,0.2
	c0.2,0.1,0.3,0.1,0.5,0.2c0.2,0.1,0.4,0.2,0.6,0.3c0.2,0.1,0.3,0.3,0.5,0.5s0.2,0.4,0.2,0.7c0,0.3-0.1,0.5-0.2,0.7
	c-0.1,0.2-0.3,0.4-0.4,0.5c-0.2,0.1-0.4,0.2-0.7,0.3s-0.5,0.1-0.8,0.1c-0.4,0-0.8-0.1-1.2-0.2c-0.4-0.2-0.7-0.4-1-0.8L8.5,55
	c0.2,0.3,0.4,0.5,0.7,0.6c0.3,0.1,0.6,0.2,1,0.2c0.2,0,0.4,0,0.6-0.1c0.2,0,0.3-0.1,0.4-0.2c0.1-0.1,0.2-0.2,0.3-0.3
	c0.1-0.1,0.1-0.2,0.1-0.4c0-0.2,0-0.3-0.1-0.5c-0.1-0.1-0.2-0.3-0.4-0.3c-0.1-0.1-0.3-0.2-0.5-0.3c-0.2-0.1-0.4-0.1-0.5-0.2
	c-0.2-0.1-0.4-0.1-0.6-0.2c-0.2-0.1-0.4-0.2-0.6-0.3c-0.2-0.1-0.3-0.3-0.4-0.4c-0.1-0.2-0.2-0.4-0.2-0.7c0-0.2,0-0.4,0.1-0.6
	c0.1-0.2,0.2-0.4,0.3-0.5c0.2-0.1,0.4-0.3,0.6-0.3c0.2-0.1,0.5-0.1,0.9-0.1c0.4,0,0.8,0.1,1.1,0.2c0.3,0.1,0.6,0.4,0.9,0.7
	L11.6,51.7L11.6,51.7z"/>
<polygon class="st1" points="14.3,56.4 14.3,50.4 17.8,50.4 17.8,51.1 14.9,51.1 14.9,53 17.6,53 17.6,53.6 14.9,53.6 14.9,55.8 
	17.8,55.8 17.8,56.4 "/>
<path class="st1" d="M21.5,54h1.8l-0.9-2.5L21.5,54z M23.5,54.6h-2.2l-0.6,1.8h-0.7l2.1-6h0.7l2.1,6h-0.7L23.5,54.6z"/>
<path class="st1" d="M30.5,51.7c-0.2-0.2-0.4-0.4-0.6-0.5c-0.2-0.1-0.5-0.2-0.8-0.2c-0.4,0-0.7,0.1-0.9,0.3
	c-0.2,0.2-0.3,0.4-0.3,0.6c0,0.1,0,0.3,0.1,0.4c0.1,0.1,0.2,0.2,0.4,0.3c0.1,0.1,0.3,0.2,0.5,0.2c0.2,0.1,0.4,0.1,0.5,0.2
	c0.2,0.1,0.3,0.1,0.5,0.2c0.2,0.1,0.4,0.2,0.6,0.3c0.2,0.1,0.3,0.3,0.5,0.5c0.1,0.2,0.2,0.4,0.2,0.7c0,0.3-0.1,0.5-0.2,0.7
	c-0.1,0.2-0.3,0.4-0.4,0.5c-0.2,0.1-0.4,0.2-0.7,0.3c-0.3,0.1-0.5,0.1-0.8,0.1c-0.4,0-0.8-0.1-1.2-0.2c-0.4-0.2-0.7-0.4-1-0.8
	l0.5-0.4c0.2,0.3,0.4,0.5,0.7,0.6c0.3,0.1,0.6,0.2,1,0.2c0.2,0,0.4,0,0.6-0.1c0.2,0,0.3-0.1,0.4-0.2c0.1-0.1,0.2-0.2,0.3-0.3
	c0.1-0.1,0.1-0.2,0.1-0.4c0-0.2,0-0.3-0.1-0.5c-0.1-0.1-0.2-0.3-0.4-0.3c-0.1-0.1-0.3-0.2-0.5-0.3c-0.2-0.1-0.4-0.1-0.5-0.2
	c-0.2-0.1-0.4-0.1-0.6-0.2c-0.2-0.1-0.4-0.2-0.6-0.3c-0.2-0.1-0.3-0.3-0.4-0.4c-0.1-0.2-0.2-0.4-0.2-0.7c0-0.2,0-0.4,0.1-0.6
	c0.1-0.2,0.2-0.4,0.3-0.5c0.2-0.1,0.4-0.3,0.6-0.3c0.2-0.1,0.5-0.1,0.9-0.1c0.4,0,0.8,0.1,1.1,0.2c0.3,0.1,0.6,0.4,0.9,0.7
	L30.5,51.7L30.5,51.7z"/>
<path class="st1" d="M38.1,53.4c0-0.3,0-0.6-0.1-0.9c-0.1-0.3-0.2-0.5-0.4-0.8c-0.2-0.2-0.4-0.4-0.7-0.5c-0.3-0.1-0.6-0.2-0.9-0.2
	c-0.4,0-0.7,0.1-0.9,0.2c-0.3,0.1-0.5,0.3-0.7,0.5c-0.2,0.2-0.3,0.5-0.4,0.8c-0.1,0.3-0.1,0.6-0.1,0.9c0,0.3,0,0.6,0.1,0.9
	c0.1,0.3,0.2,0.5,0.4,0.8c0.2,0.2,0.4,0.4,0.7,0.5c0.3,0.1,0.6,0.2,0.9,0.2c0.4,0,0.7-0.1,0.9-0.2c0.3-0.1,0.5-0.3,0.7-0.5
	c0.2-0.2,0.3-0.5,0.4-0.8C38,54,38.1,53.7,38.1,53.4 M38.7,53.4c0,0.4-0.1,0.8-0.2,1.2c-0.1,0.4-0.3,0.7-0.5,1
	c-0.2,0.3-0.5,0.5-0.9,0.7c-0.3,0.2-0.8,0.3-1.2,0.3c-0.5,0-0.9-0.1-1.2-0.3c-0.3-0.2-0.6-0.4-0.9-0.7c-0.2-0.3-0.4-0.6-0.5-1
	c-0.1-0.4-0.2-0.8-0.2-1.2c0-0.4,0.1-0.8,0.2-1.1c0.1-0.4,0.3-0.7,0.5-1c0.2-0.3,0.5-0.5,0.9-0.7c0.3-0.2,0.7-0.3,1.2-0.3
	c0.5,0,0.9,0.1,1.2,0.3c0.3,0.2,0.6,0.4,0.9,0.7c0.2,0.3,0.4,0.6,0.5,1C38.6,52.6,38.7,53,38.7,53.4"/>
<polygon class="st1" points="45,56.4 41.4,51.6 41.4,56.4 40.7,56.4 40.7,50.4 41.3,50.4 44.9,55.3 44.9,50.4 45.5,50.4 45.5,56.4 
	"/>
<path class="st1" d="M13.1,16c0,0.9-0.7,1.6-1.6,1.6c-0.9,0-1.6-0.7-1.6-1.6c0-0.9,0.7-1.6,1.6-1.6C12.4,14.4,13.1,15.1,13.1,16"/>
<path class="st1" d="M46,17.5c-3.1-1.1-6.2-1.6-9.2-1.4c-3.1,0.2-6.1,1.1-8.9,2.7c-0.5,0.3-0.9,0.5-1.4,0.8
	c-3.4,1.9-6.6,3.8-10.4,3.1c-3-0.5-5.7-2.1-8.1-3.8v3.1c2.3,1.5,4.8,2.7,7.7,3.2c0.7,0.1,1.4,0.2,2,0.2c3.8,0,7-1.8,10.1-3.6
	c0.4-0.3,0.9-0.5,1.3-0.8c2.5-1.4,5.2-2.2,7.8-2.4c2.9-0.2,5.9,0.4,9,1.6V17.5z"/>
</svg>
