<?xml version="1.0" encoding="utf-8"?>
<!-- Generator: Adobe Illustrator 19.0.0, SVG Export Plug-In . SVG Version: 6.00 Build 0)  -->
<svg version="1.1" id="Capa_1" xmlns="http://www.w3.org/2000/svg" xmlns:xlink="http://www.w3.org/1999/xlink" x="0px" y="0px"
	 viewBox="62 141 289.9 512" style="enable-background:new 62 141 289.9 512;" xml:space="preserve">
<style type="text/css">
	.st0{fill:#A2D0CA;}
</style>
<g>
	<path class="st0" d="M314.7,141H99.3C78.7,141,62,157.7,62,178.3v437.4c0,20.6,16.6,37.3,37.3,37.3h215.4
		c20.6,0,37.3-16.7,37.3-37.3V178.3C352,157.7,335.3,141,314.7,141z M153.8,163.7h106.3c2.7,0,4.9,4,4.9,9s-2.2,9-4.9,9H153.8
		c-2.7,0-4.9-4-4.9-9C149,167.7,151.1,163.7,153.8,163.7z M207,616.2c-13.1,0-23.8-10.7-23.8-23.8c0-13.1,10.7-23.8,23.8-23.8
		c13.1,0,23.8,10.6,23.8,23.8C230.8,605.5,220.1,616.2,207,616.2z M324.1,534.7H90V203.9h234.1L324.1,534.7L324.1,534.7z"/>
</g>
</svg>
