<?xml version="1.0" encoding="utf-8"?>
<!-- Generator: Adobe Illustrator 19.0.0, SVG Export Plug-In . SVG Version: 6.00 Build 0)  -->
<svg version="1.1" id="Layer_1" xmlns="http://www.w3.org/2000/svg" xmlns:xlink="http://www.w3.org/1999/xlink" x="0px" y="0px"
	 viewBox="0 0 32 32" style="enable-background:new 0 0 32 32;" xml:space="preserve">
<style type="text/css">
	.st0{fill:#ECA2B3;}
	.st1{fill:#FFFFFF;}
</style>
<circle class="st0" cx="16" cy="16" r="16"/>
<path class="st1" d="M21.1,16.7c0,0,1.9-2.7,2.1-3.6c0.1-0.3-0.1-0.5-0.4-0.5c0,0-1.1,0-1.7,0c-0.4,0-0.5,0.2-0.6,0.4
	c0,0-0.9,1.9-2,3.1c-0.4,0.4-0.5,0.5-0.7,0.5c-0.2,0-0.2-0.1-0.2-0.5V13c0-0.4-0.1-0.6-0.4-0.6h-2.7c-0.2,0-0.3,0.1-0.3,0.3
	c0,0.4,0.6,0.5,0.6,1.6v2.3c0,0.5,0,0.6-0.2,0.6c-0.6,0-1.9-2-2.7-4.2c-0.2-0.5-0.3-0.6-0.8-0.6H9.4c-0.2,0-0.4,0.2-0.4,0.4
	c0,0.4,0.5,2.5,2.6,5.3c1.4,1.9,3.2,2.9,4.8,2.9c1,0,1.2-0.2,1.2-0.6V19c0-0.4,0.1-0.5,0.3-0.5c0.2,0,0.6,0.1,1.6,1
	c1.1,1.1,1.2,1.5,1.8,1.5h1.9c0.2,0,0.4-0.1,0.4-0.4c0-0.4-0.5-1.2-1.4-2.1c-0.3-0.5-0.9-1-1.1-1.2C20.9,17.1,20.9,16.9,21.1,16.7z"
	/>
</svg>
