<?xml version="1.0" encoding="utf-8"?>
<!-- Generator: Adobe Illustrator 19.0.0, SVG Export Plug-In . SVG Version: 6.00 Build 0)  -->
<svg version="1.1" id="Слой_1" xmlns="http://www.w3.org/2000/svg" xmlns:xlink="http://www.w3.org/1999/xlink" x="0px" y="0px"
	 viewBox="0 0 38 24.3" style="enable-background:new 0 0 38 24.3;" xml:space="preserve">
<style type="text/css">
	.st0{fill:#593A96;}
	.st1{fill:#0F9A97;}
	.st2{fill:#F598AA;}
</style>
<path class="st0" d="M38,1.4c-3.1-1.1-6.2-1.6-9.2-1.4c-3.1,0.2-6.1,1.1-8.9,2.7C19.4,3,19,3.2,18.5,3.5c-3.4,1.9-6.6,3.8-10.4,3.1
	C5.1,6.1,2.4,4.5,0,2.8v3.1c2.3,1.5,4.8,2.7,7.7,3.2c0.7,0.1,1.4,0.2,2,0.2c3.8,0,7-1.8,10.1-3.6c0.4-0.3,0.9-0.5,1.3-0.8
	c2.5-1.4,5.2-2.2,7.8-2.4c2.9-0.2,5.9,0.4,9,1.6V1.4z"/>
<path class="st1" d="M38,9.1c-3.1-1.1-6.2-1.6-9.2-1.4c-3.1,0.2-6.1,1.1-8.9,2.7c-0.5,0.3-0.9,0.5-1.4,0.8
	c-3.4,1.9-6.6,3.8-10.4,3.1c-3-0.5-5.7-2.1-8.1-3.8v3.1c2.3,1.5,4.8,2.7,7.7,3.2c0.7,0.1,1.4,0.2,2,0.2c3.8,0,7-1.8,10.1-3.6
	c0.4-0.3,0.9-0.5,1.3-0.8c2.5-1.4,5.2-2.2,7.8-2.4c2.9-0.2,5.9,0.4,9,1.6V9.1z"/>
<path class="st2" d="M38,16.4c-3.1-1.1-6.2-1.6-9.2-1.4c-3.1,0.2-6.1,1.1-8.9,2.7c-0.5,0.3-0.9,0.5-1.4,0.8
	c-3.4,1.9-6.6,3.8-10.4,3.1c-3-0.5-5.7-2.1-8.1-3.8v3.1c2.3,1.5,4.8,2.7,7.7,3.2c0.7,0.1,1.4,0.2,2,0.2c3.8,0,7-1.8,10.1-3.6
	c0.4-0.3,0.9-0.5,1.3-0.8c2.5-1.4,5.2-2.2,7.8-2.4c2.9-0.2,5.9,0.4,9,1.6V16.4z"/>
</svg>
