<?xml version="1.0" encoding="utf-8"?>
<!-- Generator: Adobe Illustrator 19.0.0, SVG Export Plug-In . SVG Version: 6.00 Build 0)  -->
<svg version="1.1" id="Layer_1" xmlns="http://www.w3.org/2000/svg" xmlns:xlink="http://www.w3.org/1999/xlink" x="0px" y="0px"
	 viewBox="0 0 151.1 151.1" style="enable-background:new 0 0 151.1 151.1;" xml:space="preserve">
<style type="text/css">
	.st0{clip-path:url(#SVGID_2_);}
</style>
<g>
	<defs>
		<path id="SVGID_1_" d="M10,90.3c9.4-5.3,22.6-3.5,30.2,4.1c2.8,2.8,5.4,5.8,8.3,8.5c4.4,4.2,9.1,8.2,14.4,11
			c2.4,1.3,4.9,2.5,7.6,3.1c7.9,1.8,15.5-3.4,17.6-11.1c1.3-4.7-1.7-11.3-6.7-12.7c-3.1-0.8-7.3,0.7-6.2,4.6
			c0.4,1.5,1.6,2.6,2.9,3.4c-0.2,0.1-0.4-0.1-0.5-0.3c-1.2-3.4,2.2-6.2,4.2-2.6c1.8,3.2-1.6,7.1-4.9,7.3c-1.6,0.1-3.2-0.3-4.7-0.7
			C66.5,103.4,62,98.5,58.2,94c-2.7-3.2-4.4-7.1-7-10.4c-3.2-4.1-7.9-8.3-12.7-10.5c-5.4-2.4-12.6-2.5-18,0
			c-6.2,2.8-7.6,9.4-10.3,15.1"/>
	</defs>
	<use xlink:href="#SVGID_1_"  style="overflow:visible;fill:#FFFFFF;"/>
	<clipPath id="SVGID_2_">
		<use xlink:href="#SVGID_1_"  style="overflow:visible;"/>
	</clipPath>
	<g class="st0">
		<defs>
			
				<rect id="SVGID_3_" x="21" y="21" transform="matrix(-0.5483 0.8363 -0.8363 -0.5483 180.1656 53.7937)" width="109.1" height="109.1"/>
		</defs>
		<clipPath id="SVGID_4_">
			<use xlink:href="#SVGID_3_"  style="overflow:visible;"/>
		</clipPath>
	</g>
</g>
</svg>
