<?xml version="1.0" encoding="utf-8"?>
<!-- Generator: Adobe Illustrator 19.0.0, SVG Export Plug-In . SVG Version: 6.00 Build 0)  -->
<svg version="1.1" id="Layer_1" xmlns="http://www.w3.org/2000/svg" xmlns:xlink="http://www.w3.org/1999/xlink" x="0px" y="0px"
	 viewBox="0 0 32 32" style="enable-background:new 0 0 32 32;" xml:space="preserve">
<style type="text/css">
	.st0{fill:#98CAC5;}
	.st1{fill:#FFFFFF;}
</style>
<g>
	<g>
		<circle class="st0" cx="16" cy="16" r="16"/>
	</g>
	<path class="st1" d="M22.8,12.7c0-0.1,0-0.1,0-0.2c0,0,0,0,0-0.1c-0.2-0.5-0.7-0.9-1.3-0.9h0.1c0,0-2.4-0.4-5.5-0.4
		c-3.2,0-5.5,0.4-5.5,0.4h0.1c-0.6,0-1.1,0.4-1.3,0.9c0,0,0,0,0,0.1c0,0.1,0,0.1,0,0.2C9.2,13.3,9,14.5,9,16c0,1.5,0.2,2.7,0.2,3.3
		c0,0.1,0,0.1,0,0.2c0,0,0,0,0,0.1c0.2,0.5,0.7,0.9,1.3,0.9h-0.1c0,0,2.4,0.4,5.5,0.4c3.2,0,5.5-0.4,5.5-0.4h-0.1
		c0.6,0,1.1-0.4,1.3-0.9c0,0,0,0,0-0.1c0-0.1,0-0.1,0-0.2c0.1-0.6,0.2-1.8,0.2-3.3C23,14.5,22.8,13.3,22.8,12.7z M18.1,16.3
		l-2.8,2.1c-0.1,0-0.1,0.1-0.2,0.1c-0.1,0-0.1,0-0.2,0c-0.1-0.1-0.2-0.2-0.2-0.3V14c0-0.1,0.1-0.2,0.2-0.3c0.1-0.1,0.3,0,0.4,0
		l2.8,2.1c0.1,0.1,0.1,0.2,0.1,0.3C18.2,16.1,18.2,16.2,18.1,16.3z"/>
</g>
</svg>
